<?xml version="1.0" standalone="no"?>
<!DOCTYPE svg PUBLIC "-//W3C//DTD SVG 20010904//EN"
 "http://www.w3.org/TR/2001/REC-SVG-20010904/DTD/svg10.dtd">
<svg version="1.0" xmlns="http://www.w3.org/2000/svg"
 width="450.000000pt" height="450.000000pt" viewBox="0 0 450.000000 450.000000"
 preserveAspectRatio="xMidYMid meet">

<g transform="translate(0.000000,450.000000) scale(0.100000,-0.100000)"
fill="#000000" stroke="none">
<path d="M1986 2717 c-66 -155 -207 -487 -314 -737 -107 -250 -196 -461 -199
-468 -4 -10 40 -12 213 -10 l218 3 38 94 c21 52 38 96 38 98 0 2 -28 3 -62 1
l-61 -3 -16 -42 -15 -43 -94 0 c-51 0 -92 4 -90 9 2 5 124 293 272 640 l269
631 102 0 102 0 269 -631 c148 -348 271 -636 272 -641 2 -5 -40 -7 -94 -6
l-98 3 -62 150 -61 150 -268 3 c-262 2 -267 3 -262 22 10 37 192 480 198 480
3 0 26 -51 51 -112 l46 -113 -39 -3 c-34 -3 -41 -8 -53 -36 -35 -83 -45 -76
113 -76 78 0 141 3 141 8 0 12 -255 632 -260 632 -4 0 -334 -806 -366 -892 -6
-17 15 -18 307 -20 l314 -3 61 -150 62 -150 221 -3 c213 -2 220 -2 213 17 -4
10 -146 348 -317 750 l-310 730 -180 0 -180 0 -119 -282z"/>
</g>
</svg>
